<svg xmlns="http://www.w3.org/2000/svg" xmlns:svg="http://www.w3.org/2000/svg" xmlns:xlink="http://www.w3.org/1999/xlink" id="svg12733" width="48" height="48" version="1.1"><metadata id="metadata3"/><defs id="defs12735"><linearGradient id="linearGradient4261"><stop style="stop-color:#616787;stop-opacity:1" id="stop4263" offset="0"/><stop style="stop-color:#fbfbfb;stop-opacity:1" id="stop4265" offset="1"/></linearGradient><linearGradient id="linearGradient3141"><stop id="stop4238" offset="0" stop-color="#004191"/><stop id="stop4240" offset="1" stop-color="#000" stop-opacity="0"/></linearGradient><linearGradient id="linearGradient2168" x1="nan" x2="nan" y1="inf" y2="-inf" gradientTransform="matrix(1.0394615,0,0,0.96203659,-73.731902,966.75278)" gradientUnits="userSpaceOnUse" xlink:href="#linearGradient2162"/><linearGradient id="linearGradient3147" x1=".423" x2=".448" y1="-inf" y2="inf" xlink:href="#linearGradient3141"/><linearGradient id="linearGradient3161" x1="0" x2="1" y1="inf" y2="inf" xlink:href="#linearGradient3155"/><linearGradient id="linearGradient2162"><stop id="stop2164" offset="0" stop-color="#000"/><stop id="stop2166" offset="1" stop-color="#000" stop-opacity="0"/></linearGradient><linearGradient id="linearGradient3219" x1="97.438" x2="119.526" y1="263.73" y2="236.03" gradientUnits="userSpaceOnUse" xlink:href="#linearGradient2162"/><linearGradient id="linearGradient4242"><stop id="stop3143" offset="0" stop-color="#004191" style="stop-color:#008f73;stop-opacity:1"/><stop id="stop3145" offset="1" stop-color="#000" stop-opacity="0" style="stop-opacity:1;stop-color:#00286b"/></linearGradient><linearGradient id="linearGradient3217" x1="103.843" x2="104.903" y1="234.64" y2="279.285" gradientUnits="userSpaceOnUse" xlink:href="#linearGradient3141"/><linearGradient id="linearGradient3155"><stop id="stop3157" offset="0" stop-color="#fff"/><stop id="stop3159" offset="1" stop-color="#fff" stop-opacity="0"/></linearGradient><linearGradient id="linearGradient3221" x1="85.767" x2="128.518" y1="250.934" y2="250.934" gradientUnits="userSpaceOnUse" xlink:href="#linearGradient3155"/><linearGradient id="linearGradient4234" x1="-48.024" x2="28.292" y1="1034.046" y2="1030.924" gradientTransform="matrix(0.28729586,0,0,0.28058211,37.3726,738.90339)" gradientUnits="userSpaceOnUse" xlink:href="#linearGradient4242"/><linearGradient id="linearGradient4267" x1="12.124" x2="22.279" y1="1029.002" y2="1029.171" gradientUnits="userSpaceOnUse" xlink:href="#linearGradient4261"/><filter style="color-interpolation-filters:sRGB" id="filter4290" width="1.192" height="1.192" x="-.096" y="-.096"><feGaussianBlur id="feGaussianBlur4292" stdDeviation="2.271"/></filter><filter style="color-interpolation-filters:sRGB" id="filter4322" width="1.048" height="1.048" x="-.024" y="-.024"><feGaussianBlur id="feGaussianBlur4324" stdDeviation=".568"/></filter></defs><g id="layer1" transform="translate(0,-1004.3622)"><g id="g4256" transform="translate(-0.06191087,-0.67599481)"><rect style="opacity:1;fill:#001f5d;fill-opacity:1;stroke:#000;stroke-width:1.03694546;stroke-linecap:square;stroke-linejoin:round;stroke-miterlimit:4;stroke-dasharray:none;stroke-dashoffset:0;stroke-opacity:1" id="rect4247" width="6.368" height="12.952" x="2.584" y="1022.695" ry="0"/><path style="color:#000;display:inline;overflow:visible;visibility:visible;fill:url(#linearGradient4267);fill-opacity:1;fill-rule:nonzero;stroke:#000;stroke-width:1;stroke-linecap:butt;stroke-linejoin:round;stroke-miterlimit:4;stroke-dasharray:none;stroke-dashoffset:0;stroke-opacity:1;marker:none;marker-start:none;marker-mid:none;marker-end:none" id="rect9933" d="m 19.305516,1008.0394 -9.4683844,13.3889 -1.6026881,0 0,15.42 1.6026881,0 9.5326454,13.4537 2.409525,0 0,-42.2626 -2.473786,0 z"/><path id="path10976" d="m 35.898843,1007.8948 c 5.080935,5.6908 8.159469,13.1303 8.159469,21.2678 -2e-6,8.0194 -2.989725,15.3609 -7.939264,21.0188 m -8.166017,-38.6917 c 4.811234,4.4296 7.815942,10.7107 7.815942,17.673 0,6.9878 -3.026741,13.2894 -7.86883,17.7218 m -2.974996,-26.3569 c 1.617848,2.4998 2.554467,5.4612 2.554467,8.6351 -3e-6,3.2044 -0.954689,6.1923 -2.601249,8.707" style="color:#000;display:inline;overflow:visible;visibility:visible;fill:none;fill-opacity:1;fill-rule:nonzero;stroke:url(#linearGradient4234);stroke-width:4;stroke-linecap:round;stroke-linejoin:round;stroke-miterlimit:4;stroke-dasharray:none;stroke-dashoffset:0;stroke-opacity:1;marker:none;marker-start:none;marker-mid:none;marker-end:none"/><g id="g4221" transform="matrix(0.50750859,0,0,0.50750859,108.81823,835.02172)"><path style="opacity:1;fill:#000;fill-opacity:1;stroke:#000;stroke-width:3.94081998;stroke-miterlimit:4;stroke-dasharray:none;stroke-dashoffset:0;stroke-opacity:1;filter:url(#filter4290)" id="path4181-9-5" d="m -178.16292,366.65151 a 28.381955,28.381955 0 0 0 0.8226,40.12972 28.381955,28.381955 0 0 0 40.13278,-0.82575 28.381955,28.381955 0 0 0 -0.82881,-40.12962 28.381955,28.381955 0 0 0 -40.12657,0.82565 z m 5.92346,5.68462 a 20.170825,20.170825 0 0 1 24.30611,-3.67604 l -26.9701,28.10328 a 20.170825,20.170825 0 0 1 2.66399,-24.42724 z m 4.79919,31.60773 26.96707,-28.10013 a 20.170825,20.170825 0 0 1 -2.65782,24.42713 20.170825,20.170825 0 0 1 -24.30925,3.673 z"/><path style="opacity:1;fill:#ff2a2a;fill-opacity:1;stroke:#fff;stroke-width:3.94081998;stroke-miterlimit:4;stroke-dasharray:none;stroke-dashoffset:0;stroke-opacity:1;filter:url(#filter4322)" id="path4181-9" d="m -178.16292,366.65151 a 28.381955,28.381955 0 0 0 0.8226,40.12972 28.381955,28.381955 0 0 0 40.13278,-0.82575 28.381955,28.381955 0 0 0 -0.82881,-40.12962 28.381955,28.381955 0 0 0 -40.12657,0.82565 z m 5.92346,5.68462 a 20.170825,20.170825 0 0 1 24.30611,-3.67604 l -26.9701,28.10328 a 20.170825,20.170825 0 0 1 2.66399,-24.42724 z m 4.79919,31.60773 26.96707,-28.10013 a 20.170825,20.170825 0 0 1 -2.65782,24.42713 20.170825,20.170825 0 0 1 -24.30925,3.673 z"/><path style="opacity:1;fill:#ff2a2a;fill-opacity:1;stroke:none;stroke-width:3.94081998;stroke-miterlimit:4;stroke-dasharray:none;stroke-dashoffset:0;stroke-opacity:1" id="path4181" d="m -178.16292,366.65151 a 28.381956,28.381956 0 0 0 0.8226,40.12973 28.381956,28.381956 0 0 0 40.13278,-0.82576 28.381956,28.381956 0 0 0 -0.82881,-40.12962 28.381956,28.381956 0 0 0 -40.12657,0.82565 z m 5.92346,5.68462 a 20.170825,20.170825 0 0 1 24.30611,-3.67604 l -26.9701,28.10328 a 20.170825,20.170825 0 0 1 2.66399,-24.42724 z m 4.79919,31.60773 26.96707,-28.10013 a 20.170825,20.170825 0 0 1 -2.65782,24.42713 20.170825,20.170825 0 0 1 -24.30925,3.673 z"/></g></g></g></svg>